PathFileType	4	(X/Y/Z)	C:/Users/opensim2020/Desktop/walking_exp_matlab/subject01_walking15_straight_04.trc																																																																																																																															
DataRate	CameraRate	NumFrames	NumMarkers	Units	OrigDataRate	OrigDataStartFrame	OrigNumFrames																																																																																																																											
100	100	6	43	mm	100	2107	105																																																																																																																											
Frame#	Time	LFHD			RFHD			LBHD			RBHD			C7			T10			CLAV			STRN			RBAK			LSHO			LUPA			LELB			LFRM			LWRA			LWRB			LFIN			RSHO			RUPA			RELB			RFRM			RWRA			RWRB			RFIN			LASI			RASI			LPSI			RPSI			LTHI			LKNE			LTIB			LANK			LHEE			LTOE			RTHI			RKNE			RTIB			RANK			RHEE			RTOE			*39			*40			*41			*42		
		X1	Y1	Z1	X2	Y2	Z2	X3	Y3	Z3	X4	Y4	Z4	X5	Y5	Z5	X6	Y6	Z6	X7	Y7	Z7	X8	Y8	Z8	X9	Y9	Z9	X10	Y10	Z10	X11	Y11	Z11	X12	Y12	Z12	X13	Y13	Z13	X14	Y14	Z14	X15	Y15	Z15	X16	Y16	Z16	X17	Y17	Z17	X18	Y18	Z18	X19	Y19	Z19	X20	Y20	Z20	X21	Y21	Z21	X22	Y22	Z22	X23	Y23	Z23	X24	Y24	Z24	X25	Y25	Z25	X26	Y26	Z26	X27	Y27	Z27	X28	Y28	Z28	X29	Y29	Z29	X30	Y30	Z30	X31	Y31	Z31	X32	Y32	Z32	X33	Y33	Z33	X34	Y34	Z34	X35	Y35	Z35	X36	Y36	Z36	X37	Y37	Z37	X38	Y38	Z38	X39	Y39	Z39	X40	Y40	Z40	X41	Y41	Z41	X42	Y42	Z42	X43	Y43	Z43
																																																																																																																																		
27	0.26	-484.19974	1645.26746	948.94659	-448.78207	1659.22144	1057.03955	-597.56012	1609.48303	983.82666	-563.80737	1623.14587	1098.10181	-634.96356	1418.77429	1031.96631	-685.12213	1128.35828	1060.14539	-491.40042	1347.85352	1034.71545	-453.58954	1191.90503	1039.92993	-698.37042	1234.82727	1122.32715	-554.96399	1373.14844	872.60931	-610.6687	1189.57837	798.22528	-652.43054	1048.92493	809.41473	-653.27533	937.34332	783.57098	-617.71155	800.71393	794.59265	-672.94336	816.53784	778.37225	-656.55237	736.56268	760.61005	-553.68811	1390.76501	1184.25745	-631.10095	1205.57532	1294.97522	-632.04596	1076.16211	1306.29797	-563.58557	971.44153	1332.1604	-445.41995	898.96509	1308.84436	-484.20279	878.9613	1345.21655	-415.36188	831.88654	1352.04187	-509.83969	924.61047	965.16608	-523.17853	915.31012	1181.2406	-698.11646	930.83777	1004.74591	-704.99731	926.44397	1148.61487	-472.99808	600.95837	909.74176	-452.05518	469.82477	934.80219	-500.43503	285.92218	930.43951	-538.47772	74.32541	990.92767	-584.66278	45.73728	1043.74768	-392.88483	37.49162	985.08069	-574.73346	578.84711	1256.44202	-573.83759	420.2197	1251.32776	-732.55426	345.45868	1257.34387	-906.91315	238.36525	1211.66077	-953.6189	257.46936	1152.48694	-897.93677	94.30289	1226.71143	-463.1362	1691.45032	1033.05444	-1973.12134	1023.58167	3101.87891	-2012.51111	1022.01697	3140.67993	NaN	NaN	NaN
28	0.27	-469.95639	1646.55627	947.50525	-434.319	1660.60828	1055.54126	-583.42706	1611.2522	982.63348	-549.36993	1624.96741	1096.65698	-621.02637	1420.43665	1030.97607	-671.72076	1130.1554	1058.91907	-477.66827	1349.49084	1034.07129	-439.96756	1193.46973	1039.26172	-684.72534	1236.29993	1120.7373	-540.95038	1374.64746	871.80286	-594.66541	1190.61316	797.56573	-634.80701	1048.97253	808.69977	-632.94025	937.17017	783.36829	-594.33759	801.51508	795.46051	-649.79364	815.9668	778.55084	-631.24481	736.42053	761.3241	-540.27307	1392.4303	1183.61853	-617.99994	1207.13623	1293.94861	-618.94995	1077.3645	1305.06409	-554.30219	970.39868	1330.97754	-438.80569	893.46381	1307.43457	-478.04117	875.1825	1344.43713	-411.24454	825.24054	1350.2915	-496.81641	925.81165	964.13721	-509.58209	917.6048	1180.2113	-685.04578	932.73682	1004.38501	-691.14685	928.24408	1148.33472	-465.62189	600.37781	908.78644	-446.00378	468.90128	933.75763	-497.26102	285.26901	929.80042	-537.50464	74.14766	990.9621	-584.43945	46.31441	1043.79736	-392.3952	36.75951	984.72028	-553.1449	581.23474	1255.49231	-547.37946	423.22873	1250.81372	-705.58832	346.91708	1254.51794	-878.70526	238.80405	1208.12756	-926.62842	256.36624	1148.92078	-864.85901	95.05002	1223.78821	-448.51813	1692.85645	1031.52246	-1973.03381	1023.60834	3101.95068	-2012.526	1022.07623	3140.67676	NaN	NaN	NaN
29	0.28	-455.81876	1647.9729	946.24915	-419.8844	1661.98169	1054.15588	-569.26007	1613.05249	981.65875	-534.95026	1626.90808	1096.02356	-607.20459	1422.0957	1030.10437	-658.4126	1131.99866	1057.64978	-463.9371	1351.16101	1033.31458	-426.41199	1195.09753	1038.53381	-671.1731	1237.99402	1119.3136	-527.14429	1376.3468	871.07605	-578.75372	1192.00415	796.97296	-617.17499	1049.21887	807.92957	-612.27692	937.24677	783.16602	-570.29596	802.73981	796.37482	-625.91071	815.54553	778.7572	-604.86316	736.4126	762.15955	-526.7912	1393.95764	1182.64575	-605.04523	1208.77649	1292.95081	-606.1991	1078.79688	1303.74084	-545.3501	969.66095	1329.9552	-432.98615	888.03564	1306.15808	-472.53259	871.66992	1343.68396	-407.81149	818.78412	1349.03784	-483.98734	927.14313	962.92273	-496.00558	919.88104	1179.12439	-672.08795	934.565	1004.15521	-677.17291	930.37549	1148.19165	-458.24911	599.73853	908.03314	-440.35596	467.55942	932.94751	-494.41071	284.81955	929.30548	-537.40057	74.51349	990.70056	-584.14935	46.98095	1043.80518	-392.14761	36.54981	984.45166	-531.6424	583.93048	1254.57605	-521.2702	426.48248	1250.05652	-678.67145	348.29639	1251.65283	-849.73645	237.41241	1204.66846	-898.93933	253.01463	1145.48145	-829.83832	94.69917	1219.69519	-433.99054	1694.21838	1030.2052	-1973.14331	1023.44244	3101.87109	-2012.52893	1022.04871	3140.68042	NaN	NaN	NaN
30	0.29	-441.67133	1649.34705	945.13599	-405.41431	1663.27454	1052.99512	-555.19055	1614.83228	980.88068	-520.53564	1628.45276	1094.59607	-593.57056	1423.74268	1029.29297	-645.09027	1133.83899	1056.44299	-450.29645	1352.76672	1032.60205	-412.98611	1196.64673	1037.71533	-657.65692	1239.76733	1118.17444	-513.34106	1378.1156	870.36243	-563.16016	1193.53223	796.36261	-599.61322	1049.83972	806.99194	-591.32397	937.52356	782.88141	-545.79974	804.43469	797.31616	-601.60559	815.52869	778.90906	-577.95496	737.00201	762.96082	-513.20837	1395.46375	1181.73413	-592.28589	1210.35339	1291.6825	-593.76343	1080.3634	1302.24548	-536.79712	969.19928	1329.08862	-427.62195	882.974	1305.17932	-467.48581	868.44519	1343.17932	-405.09125	812.59412	1347.82971	-471.26672	928.48792	961.54565	-482.50681	921.99219	1177.76904	-659.23169	936.26727	1004.06219	-663.36664	932.7616	1148.29895	-451.32449	599.06042	907.86182	-434.97003	466.16745	932.3009	-491.29022	284.38269	929.21027	-536.71417	74.82166	990.74866	-583.92352	47.73701	1043.87964	-391.832	36.46873	984.32849	-510.21616	586.66998	1253.87952	-495.29248	429.57193	1249.06555	-651.50159	349.54559	1248.97302	-820.04321	234.5275	1201.30994	-870.76331	248.84976	1142.82629	-792.72009	93.68954	1215.43164	-419.56924	1695.55334	1029.13733	-1973.1908	1023.4317	3101.948	-2012.4989	1022.00293	3140.78271	NaN	NaN	NaN
31	0.3	-427.51071	1650.67871	944.2959	-390.98596	1664.46423	1052.03589	-541.09332	1616.53369	980.31128	-506.11316	1630.00305	1094.05029	-579.78687	1425.34656	1028.4812	-631.79205	1135.59143	1055.38477	-436.69962	1354.27991	1031.7146	-399.60559	1198.06421	1036.72668	-644.28564	1241.59033	1117.31665	-499.67496	1379.93823	869.6297	-547.47522	1195.07397	795.71899	-582.00354	1050.39172	805.95465	-570.27625	938.08942	782.48456	-520.87122	806.56262	798.20459	-576.74335	815.79224	779.13953	-550.35419	738.15479	763.87189	-499.55853	1396.81433	1180.95886	-579.5141	1211.79395	1290.44788	-581.62335	1081.96301	1300.6377	-528.71143	969.07025	1328.42102	-422.74179	878.09131	1304.47705	-462.8988	865.76825	1343.04199	-403.17114	806.81036	1347.04663	-459.23508	929.36249	960.13507	-469.07758	923.92285	1176.17761	-646.42493	937.89441	1004.10071	-649.40363	935.12634	1148.49255	-443.60748	598.53601	907.64868	-429.83478	465.16745	931.96173	-487.99219	284.21677	929.30005	-535.98877	75.2423	990.80304	-583.46844	48.43535	1044.08447	-391.56067	36.30341	984.13861	-489.06473	589.41779	1252.91431	-469.91809	432.99811	1247.948	-624.34845	350.62268	1246.47205	-789.495	230.22273	1197.97827	-841.81024	242.6599	1140.20251	-754.78113	90.99488	1210.47559	-405.09729	1696.7218	1028.17078	-1973.21362	1023.48834	3101.94189	-2012.45337	1021.97034	3140.7583	NaN	NaN	NaN
32	0.31	-413.35217	1652.11768	943.40869	-376.51917	1665.5177	1051.30786	-526.99695	1618.17627	979.87823	-491.67099	1631.40002	1093.55847	-566.12091	1426.84802	1027.69568	-618.50916	1137.19946	1054.37415	-423.14594	1355.65515	1030.90747	-386.19812	1199.29248	1035.66565	-630.87756	1243.33838	1116.62476	-486.0704	1381.74634	868.85535	-531.8363	1196.67969	794.92853	-564.44006	1050.94141	804.87646	-549.18036	938.85352	782.14545	-495.51581	809.14661	799.06903	-551.48724	816.41669	779.11902	-522.11829	739.68109	764.73566	-485.91171	1398.1344	1180.24158	-566.72119	1213.13367	1289.203	-569.64117	1083.51819	1298.98242	-520.82867	969.18158	1327.68384	-418.33893	873.55206	1304.12207	-458.71967	863.25391	1343.1156	-401.52689	801.39374	1346.72009	-446.04492	930.8797	958.44	-455.65396	925.8161	1174.51636	-633.60748	939.43219	1004.21448	-635.65784	937.40845	1148.70923	-435.80865	598.23639	907.61243	-424.92178	464.58829	931.98279	-484.9122	284.32257	929.44684	-535.31616	75.83083	990.97217	-583.06433	49.26438	1044.36938	-391.33783	36.207	984.34625	-468.03833	592.11407	1251.8656	-444.81204	436.45712	1246.80896	-597.06073	351.21652	1244.03015	-758.54584	224.89865	1195.15894	-812.03101	234.75186	1137.61682	-715.59509	87.72601	1205.69312	-390.61011	1697.87903	1027.45374	-1973.17957	1023.72266	3101.87109	-2012.53076	1022.16589	3140.66748	NaN	NaN	NaN
